<?xml version="1.0" standalone="no"?>
<!DOCTYPE svg PUBLIC "-//W3C//DTD SVG 20010904//EN"
 "http://www.w3.org/TR/2001/REC-SVG-20010904/DTD/svg10.dtd">
<svg version="1.0" xmlns="http://www.w3.org/2000/svg"
 width="1308.000000pt" height="1308.000000pt" viewBox="0 0 1308.000000 1308.000000"
 preserveAspectRatio="xMidYMid meet">
<metadata>
Created by potrace 1.14, written by Peter Selinger 2001-2017
</metadata>
<g transform="translate(0.000000,1308.000000) scale(0.100000,-0.100000)"
fill="#000000" stroke="none">
<path d="M6375 13071 c-2 -2 -29 -5 -60 -8 -30 -2 -68 -9 -83 -15 -15 -6 -47
-12 -72 -13 -25 -1 -76 -9 -115 -18 -38 -8 -113 -25 -165 -37 -52 -12 -101
-27 -109 -33 -8 -7 -16 -10 -18 -9 -9 9 -125 -12 -129 -23 -3 -7 -14 -11 -25
-8 -10 3 -31 0 -47 -6 -15 -6 -37 -12 -49 -14 -12 -2 -25 -6 -29 -9 -3 -4 -12
-4 -18 -2 -7 3 -18 -2 -25 -10 -6 -7 -20 -12 -30 -9 -11 3 -30 -1 -42 -8 -13
-7 -28 -12 -32 -11 -4 1 -15 -4 -23 -13 -9 -8 -30 -15 -48 -15 -34 0 -120 -23
-171 -45 -16 -7 -43 -17 -60 -21 -16 -4 -32 -8 -35 -9 -3 -1 -26 -8 -52 -15
-27 -8 -48 -18 -48 -22 0 -4 -8 -8 -17 -8 -24 0 -87 -23 -95 -35 -4 -5 -17
-11 -28 -11 -20 -1 -55 -14 -145 -55 -22 -10 -52 -21 -67 -24 -16 -4 -28 -10
-28 -14 0 -4 -8 -7 -18 -8 -10 -1 -51 -17 -92 -36 -41 -19 -92 -42 -112 -51
-20 -9 -44 -23 -53 -32 -8 -9 -15 -11 -15 -4 0 7 -5 6 -14 -2 -8 -7 -12 -16
-9 -20 2 -4 -4 -5 -13 -1 -11 4 -15 2 -11 -4 4 -6 -4 -9 -19 -7 -19 2 -24 -1
-20 -13 5 -11 2 -13 -10 -9 -14 5 -140 -46 -154 -63 -3 -3 -52 -30 -110 -59
-58 -29 -121 -62 -140 -73 -19 -12 -53 -31 -75 -42 -22 -12 -46 -28 -53 -34
-7 -7 -24 -16 -38 -19 -13 -3 -24 -10 -24 -15 0 -5 -11 -14 -25 -19 -14 -5
-25 -14 -25 -19 0 -4 -13 -11 -30 -14 -19 -4 -30 -13 -30 -23 0 -10 -6 -14
-14 -11 -8 3 -20 -1 -26 -9 -7 -8 -19 -14 -26 -14 -8 0 -14 -4 -14 -10 0 -5
-6 -10 -13 -10 -7 0 -22 -8 -33 -19 -11 -10 -30 -22 -42 -25 -12 -4 -37 -23
-57 -42 -19 -19 -40 -34 -45 -34 -16 0 -88 -50 -94 -66 -3 -8 -13 -14 -22 -14
-9 0 -36 -16 -60 -35 -23 -19 -45 -35 -48 -35 -4 0 -20 -12 -37 -27 -17 -16
-34 -28 -38 -28 -10 0 -61 -56 -61 -67 0 -4 -13 -36 -29 -70 -17 -34 -28 -65
-25 -70 3 -4 0 -8 -5 -8 -6 0 -10 -3 -10 -7 2 -13 -25 -73 -33 -73 -4 0 -14
-23 -22 -51 -9 -28 -20 -57 -25 -63 -4 -6 -11 -22 -14 -36 -2 -14 -16 -56 -31
-94 -14 -38 -23 -73 -20 -78 3 -4 1 -8 -4 -8 -5 0 -10 -6 -11 -12 -1 -7 -3
-24 -5 -38 -2 -14 -9 -38 -16 -55 -6 -16 -16 -57 -22 -90 -6 -33 -15 -70 -21
-82 -6 -13 -8 -26 -4 -29 3 -3 1 -18 -5 -33 -5 -14 -11 -39 -13 -56 -2 -16 -6
-41 -10 -55 -7 -26 -23 -141 -30 -220 -3 -25 -8 -61 -12 -80 -12 -64 -13 -83
-16 -285 -4 -207 -6 -222 -50 -267 -10 -11 -16 -26 -13 -34 3 -8 -1 -14 -9
-14 -13 0 -20 -17 -17 -41 1 -4 -8 -15 -18 -24 -11 -10 -20 -25 -20 -34 0 -9
-7 -25 -15 -35 -8 -10 -12 -23 -9 -27 3 -5 0 -9 -6 -9 -7 0 -10 -6 -8 -12 3
-7 -6 -35 -20 -62 -13 -26 -27 -67 -29 -90 -3 -22 -9 -45 -13 -51 -21 -28 -33
-229 -29 -477 0 -10 4 -18 10 -18 5 0 8 -3 7 -7 -5 -18 13 -113 22 -118 6 -4
8 -10 5 -15 -3 -4 2 -27 10 -51 14 -42 19 -53 47 -116 7 -16 23 -42 35 -59 13
-17 23 -34 23 -37 0 -4 8 -15 18 -25 9 -11 33 -37 54 -60 20 -22 39 -38 42
-35 3 3 8 -2 12 -11 3 -9 11 -16 18 -16 6 0 26 -16 45 -35 18 -19 37 -32 41
-30 5 3 10 2 12 -2 4 -11 97 -73 108 -73 6 0 10 -4 10 -10 0 -5 7 -10 15 -10
8 0 15 -4 15 -9 0 -5 12 -14 28 -20 28 -11 83 -41 104 -58 32 -24 175 -70 293
-93 33 -7 65 -16 71 -21 6 -5 13 -7 16 -4 3 3 11 -1 18 -10 7 -8 19 -15 26
-15 8 0 14 -4 14 -10 0 -5 4 -9 8 -7 12 3 66 -62 58 -70 -3 -4 -6 -1 -6 5 0 7
-4 12 -10 12 -5 0 -8 -6 -6 -12 1 -7 1 -10 -1 -5 -8 13 -43 8 -49 -7 -3 -8
-12 -12 -20 -9 -8 3 -14 0 -14 -6 0 -6 -6 -8 -13 -5 -8 3 -27 -1 -43 -7 -16
-7 -31 -13 -34 -13 -17 -4 -29 -19 -24 -29 5 -8 3 -8 -6 0 -11 10 -18 9 -34
-5 -11 -9 -16 -11 -12 -4 10 17 -18 16 -33 -1 -6 -8 -7 -18 -3 -22 4 -5 1 -5
-6 -1 -7 4 -10 12 -7 17 8 12 3 11 -51 -2 -24 -6 -44 -16 -44 -21 0 -5 -4 -7
-9 -3 -5 3 -12 1 -16 -5 -4 -6 -11 -8 -16 -5 -13 9 -11 -9 4 -25 10 -12 9 -12
-5 -1 -14 11 -21 11 -33 1 -8 -7 -12 -16 -9 -21 3 -5 -2 -6 -10 -3 -9 3 -17
-2 -21 -15 -3 -12 -11 -21 -16 -21 -6 0 -5 -9 2 -21 7 -15 7 -19 0 -15 -12 8
-10 -51 3 -72 4 -7 2 -12 -5 -12 -7 0 -5 -8 6 -20 10 -11 13 -20 7 -20 -6 0
-12 6 -14 12 -6 16 -47 -28 -100 -105 -34 -50 -38 -60 -26 -74 11 -14 11 -16
-4 -10 -12 4 -15 2 -11 -9 3 -8 -1 -21 -8 -30 -10 -13 -10 -17 2 -25 10 -6 10
-9 2 -9 -7 0 -13 -9 -13 -21 0 -13 4 -18 13 -14 6 4 5 1 -3 -7 -15 -13 -20
-89 -7 -122 4 -10 3 -15 -4 -11 -13 9 0 -47 14 -56 5 -4 4 -8 -4 -11 -8 -3
-10 -9 -4 -19 5 -8 8 -22 7 -31 -2 -10 1 -18 6 -18 5 0 8 -10 7 -22 -1 -13 3
-32 8 -43 6 -11 10 -24 9 -29 -2 -5 2 -22 7 -38 7 -19 7 -27 0 -23 -6 4 -7 -3
-3 -21 4 -16 3 -25 -3 -21 -5 3 -14 -7 -20 -23 -9 -25 -9 -28 6 -22 14 5 14 4
2 -11 -7 -9 -10 -17 -5 -17 5 0 2 -5 -6 -10 -13 -8 -13 -11 -1 -22 12 -11 13
-10 6 2 -5 8 -4 11 0 7 5 -4 10 -13 11 -20 1 -7 3 -16 4 -22 6 -27 -2 -43 -26
-49 -15 -4 -24 -10 -20 -13 3 -4 -2 -15 -11 -26 -11 -12 -12 -17 -4 -12 10 5
12 4 7 -3 -4 -7 -13 -12 -21 -12 -12 0 -24 -17 -21 -31 0 -3 -7 -13 -17 -23
-9 -10 -15 -22 -12 -27 4 -5 2 -9 -3 -9 -12 0 -53 -76 -45 -84 3 -3 0 -6 -7
-6 -7 0 -10 -3 -7 -7 4 -3 1 -13 -6 -21 -10 -13 -9 -15 3 -8 8 4 6 0 -4 -8
-20 -16 -20 -16 0 -31 16 -13 16 -14 2 -9 -12 4 -18 1 -18 -9 0 -8 -6 -18 -12
-20 -10 -4 -9 -6 1 -6 11 -1 10 -6 -3 -25 -9 -14 -13 -32 -10 -40 3 -8 2 -21
-2 -28 -4 -7 -8 -24 -8 -38 -1 -14 -5 -31 -9 -37 -5 -7 -5 -17 -2 -23 3 -5 0
-10 -7 -11 -7 0 -4 -4 7 -9 11 -5 15 -9 9 -9 -10 -1 -14 -14 -15 -54 0 -11 -5
-15 -12 -10 -7 4 -5 -2 3 -12 12 -15 12 -17 1 -10 -11 6 -13 4 -8 -8 3 -9 1
-18 -6 -21 -9 -3 -9 -5 1 -5 10 -1 9 -7 -2 -29 -8 -16 -13 -37 -12 -48 2 -10
0 -29 -5 -40 -5 -15 -2 -27 9 -40 16 -17 16 -17 0 -5 -15 11 -19 11 -23 -1 -3
-8 -5 -19 -4 -24 1 -5 0 -12 -1 -16 -1 -5 -3 -16 -4 -25 -1 -10 -8 -29 -15
-43 -13 -23 -13 -24 3 -11 14 12 16 12 10 -3 -3 -9 -10 -16 -16 -16 -5 0 -7
-4 -4 -9 4 -5 0 -12 -6 -14 -7 -3 -4 -6 7 -7 19 -1 19 -1 -2 -19 -13 -11 -23
-25 -23 -33 0 -10 3 -9 11 2 9 12 9 11 3 -5 -4 -11 -7 -28 -8 -37 0 -9 -4 -14
-8 -12 -8 5 -12 -11 -9 -30 1 -4 -2 -13 -7 -20 -10 -12 -26 -67 -24 -78 1 -5
-2 -8 -7 -8 -6 0 -8 -9 -6 -20 2 -11 0 -20 -6 -20 -5 0 -9 -8 -9 -19 0 -24
-25 -73 -33 -64 -4 3 -7 -1 -7 -9 0 -9 6 -19 13 -21 7 -3 4 -6 -6 -6 -10 -1
-15 -5 -12 -11 3 -5 1 -10 -4 -10 -6 0 -11 -7 -11 -15 0 -8 -6 -15 -12 -15 -9
0 -8 -4 2 -10 13 -8 12 -10 -3 -10 -10 0 -16 -4 -12 -9 3 -5 -6 -21 -20 -35
-14 -14 -25 -32 -25 -41 0 -8 -5 -15 -11 -15 -5 0 -7 -4 -4 -10 3 -5 2 -10 -2
-10 -5 0 -14 -9 -21 -21 -8 -12 -9 -18 -3 -14 6 3 11 2 11 -4 0 -5 -9 -13 -20
-16 -15 -5 -19 -12 -15 -33 4 -19 3 -22 -3 -9 -7 17 -9 17 -21 3 -7 -9 -10
-16 -6 -16 5 0 -3 -9 -16 -21 -13 -12 -23 -25 -21 -30 1 -5 -2 -9 -7 -9 -15 0
-101 -84 -101 -99 0 -7 -4 -10 -9 -7 -5 3 -14 -1 -20 -8 -10 -11 -8 -15 6 -19
10 -3 3 -5 -15 -6 -18 0 -31 -5 -28 -10 3 -5 -2 -12 -11 -15 -15 -6 -15 -8 -3
-16 13 -9 13 -10 0 -10 -20 0 -80 -57 -80 -76 0 -7 -5 -13 -12 -12 -7 2 -12
-3 -13 -9 0 -7 -10 -20 -22 -28 -13 -9 -23 -23 -23 -31 0 -8 -4 -12 -10 -9 -5
3 -10 1 -10 -4 0 -6 -8 -19 -17 -29 -53 -56 -88 -116 -77 -134 4 -7 3 -8 -4
-4 -12 7 -42 -53 -42 -86 0 -12 -4 -17 -12 -12 -8 5 -9 2 -4 -11 4 -11 2 -21
-5 -26 -7 -4 -13 -18 -13 -31 -1 -12 -6 -29 -10 -37 -7 -10 -5 -12 5 -6 11 6
11 5 2 -5 -7 -8 -8 -22 -3 -41 5 -16 5 -27 1 -25 -4 3 -8 -17 -7 -44 1 -28 4
-50 9 -50 4 0 6 -3 5 -7 -1 -5 4 -24 11 -43 8 -19 15 -39 15 -45 1 -5 7 -9 14
-7 7 1 11 -1 11 -5 -3 -20 2 -34 11 -28 5 3 10 -2 10 -11 0 -10 3 -15 6 -11 3
3 15 -3 27 -13 11 -11 24 -17 28 -14 4 2 10 0 14 -6 4 -6 11 -8 16 -5 5 4 9 2
9 -3 0 -5 20 -9 45 -8 25 1 45 -3 45 -8 0 -6 4 -6 10 0 6 6 24 9 40 6 21 -3
27 -8 23 -20 -4 -9 -2 -13 4 -9 7 5 9 0 6 -13 -3 -11 -10 -17 -17 -13 -6 3 -3
-3 7 -14 13 -15 15 -22 6 -25 -13 -4 -22 -58 -10 -58 4 0 6 -14 3 -30 -3 -18
0 -30 7 -30 6 0 10 -3 10 -7 -3 -20 2 -34 11 -28 6 3 7 -1 4 -9 -4 -11 0 -16
12 -16 14 0 16 -2 6 -9 -20 -12 20 -21 42 -9 10 6 16 5 16 -1 0 -5 26 -36 58
-68 70 -71 111 -86 317 -117 165 -25 569 -25 860 -1 28 2 84 7 125 10 160 13
490 47 595 61 61 8 128 17 150 20 22 2 60 7 85 10 25 3 57 8 73 10 15 2 51 7
80 9 28 3 70 8 92 11 69 10 98 13 160 19 33 3 71 7 85 9 14 2 52 7 85 10 33 4
71 9 85 11 14 2 43 7 65 10 22 2 103 14 180 25 77 11 158 23 180 25 22 3 51 7
65 10 14 2 50 7 80 11 30 3 66 8 80 10 94 15 242 31 445 48 130 11 403 13 469
3 15 -3 32 -11 37 -18 5 -8 9 -11 9 -7 0 4 11 3 25 -2 19 -7 27 -6 34 8 9 14
11 12 12 -13 1 -16 1 -33 0 -38 0 -4 3 -7 7 -7 4 0 8 -9 9 -20 1 -13 -2 -18
-9 -14 -7 4 -8 2 -4 -4 4 -6 9 -37 11 -69 7 -101 52 -205 120 -275 14 -16 23
-28 19 -28 -8 0 12 -18 72 -65 20 -16 42 -34 48 -40 26 -24 105 -85 110 -85 3
0 14 -8 24 -17 10 -10 29 -25 41 -33 33 -22 71 -86 71 -118 0 -16 3 -32 8 -36
4 -4 7 -11 8 -14 3 -29 19 -63 35 -78 10 -9 19 -21 19 -27 0 -5 9 -18 21 -28
11 -9 22 -30 24 -46 5 -29 7 -38 19 -89 11 -47 108 -231 131 -246 6 -5 6 -8 0
-8 -5 0 -3 -5 5 -11 11 -8 7 -9 -18 -6 -18 2 -35 0 -38 -5 -3 -5 -10 -6 -15
-3 -5 4 -9 1 -9 -4 0 -6 -6 -11 -13 -11 -7 0 -29 -14 -48 -31 -19 -17 -41 -36
-49 -42 -31 -24 -80 -89 -75 -98 4 -5 1 -9 -5 -9 -6 0 -8 -4 -5 -10 3 -5 2
-10 -4 -10 -5 0 -15 -17 -22 -38 -6 -20 -20 -49 -30 -63 -10 -14 -16 -29 -13
-32 3 -3 -21 -13 -53 -22 -32 -9 -75 -22 -97 -28 -21 -6 -44 -16 -50 -22 -6
-5 -17 -11 -24 -13 -30 -6 -104 -46 -109 -59 -3 -7 -11 -13 -19 -13 -13 0 -54
-31 -78 -58 -32 -37 -38 -42 -49 -35 -6 4 -8 0 -4 -10 4 -11 1 -17 -7 -17 -17
0 -59 -55 -79 -103 -14 -32 -15 -56 -4 -107 7 -32 42 -96 62 -110 35 -26 111
-39 140 -24 14 7 25 11 25 8 0 -7 85 29 92 40 4 6 8 7 8 3 0 -4 10 -2 23 5 12
7 24 13 27 13 5 0 55 20 105 41 27 11 193 67 205 69 144 22 230 51 230 75 0 4
20 41 45 81 47 78 95 139 95 121 0 -6 3 -19 6 -29 5 -15 4 -15 -5 -3 -9 12
-11 11 -11 -8 0 -13 -9 -60 -21 -105 -11 -45 -22 -104 -24 -130 -2 -27 -7 -61
-10 -76 -12 -57 -13 -94 -3 -117 8 -17 8 -27 -2 -39 -7 -8 -16 -13 -20 -10 -5
3 -10 -5 -12 -17 -2 -13 -9 -23 -16 -23 -15 0 -102 -82 -102 -96 0 -6 -4 -7
-10 -4 -5 3 -10 1 -10 -5 0 -6 -11 -23 -25 -38 -14 -15 -32 -41 -40 -59 -9
-18 -20 -33 -25 -33 -5 0 -19 -20 -31 -45 -12 -25 -26 -45 -31 -45 -4 0 -7 -3
-6 -7 1 -5 -10 -32 -26 -62 -15 -29 -25 -59 -22 -67 3 -7 -1 -19 -8 -27 -40
-39 -34 -247 7 -247 6 0 8 -3 4 -6 -6 -6 21 -39 32 -39 3 0 12 -4 19 -8 21
-14 85 -10 127 8 22 9 65 43 95 76 70 74 67 71 124 154 27 39 56 80 65 91 9
12 23 32 31 44 41 62 205 230 224 230 3 0 28 20 54 45 50 47 67 82 85 175 3
14 10 43 15 65 6 22 13 54 16 70 3 17 10 44 15 62 5 17 7 34 3 37 -3 3 0 6 7
6 7 0 9 5 6 10 -3 6 -1 10 6 10 7 0 10 -11 7 -30 -3 -16 -1 -30 4 -30 5 0 5
-7 0 -17 -6 -10 -6 -29 -1 -47 5 -17 11 -53 14 -79 2 -27 9 -55 14 -61 15 -18
17 -79 3 -84 -6 -2 -12 -10 -12 -18 0 -18 -8 -35 -70 -146 -17 -32 -29 -68
-56 -173 -3 -11 -7 -29 -8 -40 -2 -11 -9 -33 -16 -50 -6 -16 -12 -47 -12 -67
-1 -21 -3 -38 -7 -38 -3 0 -7 -12 -8 -27 -13 -169 37 -243 142 -209 30 9 75
44 75 59 0 4 9 20 19 35 11 15 32 63 46 107 15 44 34 94 41 112 8 17 14 34 14
38 0 3 9 26 21 51 17 38 23 43 35 34 10 -9 14 -9 14 -1 0 6 5 10 12 9 6 -2 22
13 34 32 13 19 27 40 31 46 17 23 34 50 46 74 12 24 48 67 112 135 17 17 54
56 82 87 29 31 67 67 85 79 52 36 123 111 136 144 13 33 25 107 23 143 -1 32
15 27 29 -10 7 -18 24 -47 37 -65 12 -17 23 -36 23 -42 0 -5 10 -17 23 -26 12
-8 22 -19 22 -24 0 -10 71 -62 90 -66 5 -1 24 -8 40 -15 49 -21 163 -21 227 0
84 28 96 37 108 80 9 34 8 45 -6 69 -10 16 -28 35 -40 41 -28 16 -109 116
-187 234 -34 50 -65 93 -69 94 -4 2 -8 8 -8 13 0 9 -120 206 -152 250 -23 31
-29 60 -16 76 7 9 2 14 -16 19 -14 3 -24 9 -22 13 5 9 -21 31 -28 24 -3 -4 -6
1 -6 10 0 10 -4 17 -8 17 -9 0 -5 157 7 260 5 41 7 84 4 95 -2 11 -6 34 -8 52
-7 61 -20 140 -25 153 -1 3 -2 8 -1 12 4 28 -96 196 -122 204 -9 3 -15 9 -12
14 2 4 -6 24 -20 44 -14 20 -25 41 -25 46 0 6 -4 10 -8 10 -5 0 -31 33 -58 73
-27 39 -51 74 -54 77 -3 3 -24 30 -47 60 -23 30 -50 64 -60 75 -10 11 -46 54
-81 95 -69 82 -166 190 -252 281 -88 94 -175 190 -178 199 -2 6 74 13 273 25
17 1 100 5 185 9 281 12 387 23 416 41 18 12 24 10 50 -10 16 -14 37 -24 46
-25 9 0 21 -6 25 -14 9 -15 98 -64 129 -71 10 -2 39 -11 64 -20 33 -12 60 -15
105 -9 90 11 205 8 205 -6 0 -3 8 -6 18 -7 9 -1 34 -6 55 -11 36 -10 160 -8
223 3 35 6 36 5 123 -100 9 -11 39 -38 66 -60 27 -22 65 -55 85 -72 26 -26 43
-33 74 -33 34 0 181 -52 226 -81 8 -5 26 -14 40 -19 14 -6 34 -14 45 -19 54
-23 297 -91 340 -96 11 -1 27 -5 35 -8 8 -3 54 -15 103 -27 85 -21 160 -45
222 -70 17 -7 35 -14 40 -16 30 -7 65 -25 65 -32 0 -5 7 -9 15 -9 10 0 14 6
10 15 -4 12 -2 12 8 4 8 -7 17 -9 20 -5 4 3 -1 12 -11 20 -9 8 -11 12 -4 8 6
-3 15 1 18 9 3 9 10 14 14 11 5 -3 14 1 22 8 24 23 160 79 247 103 134 35 209
65 224 88 19 29 41 149 52 271 2 33 7 89 10 125 6 75 11 111 19 160 5 32 15
172 20 298 1 28 -2 52 -7 52 -4 0 -5 -6 -1 -12 4 -7 3 -9 -1 -5 -14 12 -15 38
-2 31 7 -3 5 0 -3 8 -17 14 -39 81 -46 136 -3 19 -9 42 -14 52 -5 9 -6 20 -3
24 3 3 2 6 -4 6 -8 0 -22 39 -23 65 0 3 -6 21 -14 40 -9 20 -15 36 -15 38 1 9
-20 63 -54 137 -13 30 -30 70 -37 88 -7 17 -16 32 -21 32 -5 0 -9 8 -9 18 0
10 -4 22 -9 28 -5 5 -39 68 -76 139 -37 72 -87 167 -112 213 -24 45 -41 82
-36 82 4 0 4 4 -2 8 -14 10 -48 72 -39 72 4 0 0 8 -9 18 -10 10 -14 22 -10 25
3 4 1 7 -5 7 -7 0 -12 6 -12 14 0 11 -15 42 -58 121 -14 26 -56 118 -57 125
-1 3 -11 26 -23 52 -12 26 -22 50 -22 53 0 4 -6 21 -14 38 -28 67 -51 122 -52
127 -5 29 -30 100 -35 100 -6 0 -23 58 -20 73 0 4 -4 7 -11 7 -6 0 -8 3 -5 7
4 3 3 11 -2 17 -5 6 -14 29 -20 51 -7 22 -16 49 -21 60 -14 36 -35 90 -35 95
0 3 -7 16 -15 30 -7 14 -13 27 -13 30 1 8 -17 60 -38 115 -15 36 -14 33 -24
70 -4 17 -12 36 -18 43 -5 6 -6 12 -1 12 5 0 4 4 -1 8 -10 7 -72 172 -82 220
-3 12 -10 22 -15 22 -5 0 -6 5 -3 10 4 6 3 16 -2 23 -9 11 -45 100 -49 120 -1
4 -3 9 -4 12 -1 3 -3 8 -4 13 -1 4 -5 13 -9 20 -5 6 -6 12 -2 12 3 0 -3 17
-14 38 -16 32 -28 70 -37 119 -3 15 -24 83 -32 103 -3 8 -7 22 -8 30 -8 48
-16 78 -25 102 -6 15 -8 32 -4 37 3 6 1 11 -5 11 -7 0 -10 6 -7 14 3 8 3 17
-1 20 -3 4 -7 14 -9 24 -4 22 -13 72 -17 97 -2 11 -4 20 -5 20 -1 0 -4 14 -6
30 -2 17 -7 41 -10 55 -4 14 -9 36 -11 50 -2 14 -6 34 -8 45 -32 122 -45 185
-52 247 -8 86 -12 113 -14 113 -2 0 -10 36 -12 58 -1 9 -7 17 -12 17 -5 0 -7
3 -3 6 3 3 -5 32 -19 63 -14 31 -26 61 -27 66 -1 6 -5 12 -8 15 -3 3 -25 34
-49 70 -24 36 -46 67 -50 70 -3 3 -21 25 -40 50 -19 25 -39 48 -45 53 -6 4 -5
11 5 17 12 8 12 10 -5 10 -21 0 -60 52 -48 63 3 4 1 12 -4 19 -6 7 -16 37 -24
66 -7 28 -17 52 -23 52 -5 0 -6 3 -3 6 17 17 -71 151 -161 245 -52 54 -98 99
-103 99 -9 0 -26 16 -62 57 -12 13 -20 42 -23 78 -2 32 -8 63 -14 70 -5 6 -7
15 -4 18 8 8 -48 95 -82 127 -30 28 -107 140 -107 155 1 30 15 80 24 83 5 2 9
10 9 18 0 8 5 14 10 14 6 0 10 7 10 15 0 8 4 15 8 15 4 0 15 12 24 28 9 15 27
39 40 53 13 15 37 44 53 65 17 21 44 53 60 70 72 78 75 95 25 123 -21 11 -45
21 -53 21 -8 0 -17 5 -19 12 -2 6 -11 13 -19 14 -7 2 -32 10 -55 18 -22 8 -70
16 -105 18 -51 2 -70 -1 -91 -17 -15 -11 -28 -23 -28 -27 0 -5 -7 -8 -15 -8
-8 0 -15 -9 -15 -21 0 -11 -4 -18 -8 -15 -5 3 -19 -6 -30 -19 -12 -14 -19 -25
-14 -25 4 0 -1 -5 -10 -11 -9 -5 -15 -15 -12 -23 3 -7 -6 -24 -19 -36 -14 -14
-22 -30 -19 -39 3 -9 1 -12 -6 -7 -8 4 -10 2 -6 -8 3 -9 -2 -17 -15 -21 -19
-6 -25 -17 -22 -37 0 -5 -4 -8 -9 -8 -6 0 -10 -5 -10 -11 0 -5 4 -7 10 -4 6 3
7 -1 4 -9 -3 -9 -10 -13 -15 -10 -8 4 -14 -26 -10 -49 1 -5 -2 -6 -6 -4 -5 3
-17 -7 -27 -21 -12 -16 -14 -23 -5 -18 8 4 6 1 -3 -7 -10 -8 -18 -22 -18 -31
0 -10 -7 -24 -15 -33 -12 -12 -13 -18 -4 -29 6 -8 7 -14 3 -14 -5 0 -15 -9
-22 -21 -9 -14 -10 -19 -2 -14 7 4 4 -5 -6 -21 -11 -15 -13 -25 -6 -21 7 5 12
3 12 -5 0 -8 -6 -20 -12 -27 -11 -11 -10 -14 0 -18 6 -3 9 -10 5 -16 -13 -21
-14 -49 -2 -41 8 5 10 -1 7 -19 -3 -15 -1 -24 3 -21 5 3 6 -9 3 -26 -5 -20 -3
-30 6 -30 10 0 10 -3 -1 -16 -8 -10 -9 -18 -3 -22 5 -4 9 -24 8 -44 -1 -21 2
-38 7 -38 5 0 6 -7 2 -15 -4 -13 -8 -12 -21 7 -9 13 -28 32 -42 43 -14 11 -35
30 -47 42 -13 12 -23 21 -23 19 0 -2 -16 11 -37 30 -20 18 -41 30 -47 27 -6
-3 -8 -3 -4 1 11 12 -44 57 -61 51 -8 -3 -12 -3 -8 1 7 7 -29 44 -43 44 -4 0
-17 9 -30 20 -12 11 -27 17 -31 14 -5 -3 -9 3 -9 13 0 15 -2 16 -10 3 -8 -12
-10 -11 -10 7 0 18 -9 25 -42 34 -64 18 -72 19 -80 6 -5 -8 -8 -6 -8 6 0 10
-4 15 -10 12 -5 -3 -24 -2 -42 3 -34 9 -61 6 -54 -7 3 -4 -9 -6 -27 -5 -17 1
-41 -3 -52 -9 -11 -6 -25 -12 -31 -13 -6 -1 -24 -5 -40 -8 -27 -6 -29 -4 -30
24 -1 23 2 30 12 26 8 -3 14 -1 14 4 0 5 9 12 21 15 11 4 18 9 15 12 -7 7 38
43 53 43 18 0 71 52 64 63 -3 6 -1 7 6 3 6 -4 14 0 18 11 3 10 11 24 16 31 6
8 12 21 13 30 2 10 12 49 23 87 12 39 23 84 26 100 2 17 7 41 10 55 4 14 8 52
10 85 2 33 4 60 5 60 1 0 4 25 6 54 3 30 7 57 9 59 3 3 -3 11 -13 19 -9 8 -12
12 -6 9 18 -9 21 10 18 113 -4 144 -12 224 -25 232 -7 4 -7 8 -1 10 6 3 5 22
-4 54 -7 28 -13 60 -14 73 0 12 -4 22 -10 22 -5 0 -10 15 -10 33 0 18 -6 42
-14 52 -8 11 -11 26 -8 34 3 8 1 12 -5 8 -6 -4 -10 4 -10 20 0 15 -6 29 -12
31 -6 2 -11 10 -11 17 0 32 -95 176 -162 245 -39 41 -71 81 -70 88 2 6 -2 12
-8 12 -6 0 -8 5 -5 11 4 5 -1 26 -10 45 -9 19 -18 43 -20 54 -2 10 -8 27 -14
38 -6 11 -7 22 -4 26 3 3 1 6 -5 6 -7 0 -12 7 -12 16 0 8 -11 40 -25 70 -14
30 -25 57 -25 60 0 3 -8 24 -19 47 -17 39 -32 75 -36 87 -9 26 -20 51 -35 80
-10 19 -21 46 -25 60 -4 14 -20 53 -36 88 -16 35 -29 68 -29 73 0 5 -4 9 -10
9 -5 0 -10 7 -10 15 0 26 -137 283 -205 385 -65 99 -166 215 -217 252 -34 24
-100 39 -119 27 -10 -6 -10 -13 1 -36 7 -15 14 -30 15 -33 0 -3 16 -36 34 -75
69 -147 118 -271 113 -292 -1 -6 2 -14 8 -18 5 -3 10 -15 10 -26 0 -10 6 -19
13 -19 9 0 8 -3 -2 -9 -8 -5 -10 -14 -6 -22 11 -19 10 -18 -97 86 -51 50 -115
108 -142 130 -26 22 -61 51 -77 65 -16 14 -34 30 -41 35 -7 6 -27 21 -44 35
-18 14 -46 36 -64 50 -18 14 -38 31 -45 38 -8 6 -18 12 -23 12 -6 0 -12 4 -14
8 -1 5 -51 45 -110 90 -58 44 -104 83 -100 86 3 3 -1 6 -8 6 -7 0 -22 8 -33
18 -11 9 -17 11 -13 5 4 -7 2 -13 -3 -13 -6 0 -11 4 -11 9 0 8 -87 10 -95 2z
m2770 -2851 c3 -5 1 -10 -4 -10 -6 0 -11 5 -11 10 0 6 2 10 4 10 3 0 8 -4 11
-10z m-155 -254 c0 -3 -4 -8 -10 -11 -5 -3 -10 -1 -10 4 0 6 5 11 10 11 6 0
10 -2 10 -4z m-735 -326 c3 -5 -1 -10 -10 -10 -9 0 -13 5 -10 10 3 6 8 10 10
10 2 0 7 -4 10 -10z m-4696 -1610 c4 0 7 -10 8 -22 1 -18 -2 -16 -17 12 -11
19 -19 40 -19 45 0 6 5 0 11 -12 6 -13 14 -23 17 -23z m4578 -252 c0 -7 -12
-14 -26 -15 l-26 -1 25 14 c14 7 25 13 26 14 0 0 1 -6 1 -12z m-4759 -95 c-13
-16 -17 -13 -23 15 -3 19 -1 20 15 10 14 -9 16 -15 8 -25z m1272 -2325 c0 -4
9 -8 20 -8 11 0 20 -4 20 -10 0 -5 7 -7 15 -4 11 5 22 -9 40 -48 13 -29 34
-63 45 -75 11 -12 20 -26 20 -31 0 -5 7 -15 15 -22 9 -7 14 -15 11 -17 -2 -3
12 -22 32 -43 21 -21 56 -59 80 -84 23 -25 42 -43 42 -41 0 3 16 -9 35 -27 20
-17 31 -34 26 -37 -5 -4 -3 -15 6 -26 12 -15 14 -16 10 -3 -4 12 -2 15 8 12 8
-4 12 -15 9 -31 -3 -14 -1 -22 5 -19 5 3 12 -1 15 -10 3 -8 10 -13 14 -10 5 3
9 0 10 -7 5 -38 9 -53 14 -62 3 -6 5 -30 4 -55 -1 -25 3 -48 8 -52 7 -5 6 -8
-2 -8 -7 0 -10 -5 -7 -11 4 -6 -2 -13 -14 -16 -12 -3 -21 -10 -21 -15 0 -6 -5
-6 -14 1 -15 13 -46 5 -46 -12 0 -8 -3 -8 -10 -1 -10 10 -46 7 -163 -10 -15
-3 -33 -9 -40 -14 -17 -12 -51 8 -55 33 -4 22 -50 67 -62 60 -10 -6 -17 30
-15 87 0 30 -3 44 -10 40 -6 -3 -5 0 1 9 12 14 13 46 3 64 -3 6 -5 25 -3 43 1
17 -3 32 -8 32 -5 0 -6 5 -3 10 3 6 2 10 -4 10 -5 0 -8 8 -7 18 4 22 -25 102
-37 102 -4 0 -5 5 -2 11 4 6 -1 17 -11 25 -11 9 -14 13 -8 10 9 -4 9 5 2 34
-6 22 -13 40 -17 40 -3 0 -6 12 -7 28 0 15 -4 47 -7 70 -8 55 5 82 38 80 14
-1 25 -6 25 -10z m116 -58 c0 -12 -4 -16 -9 -11 -5 5 -6 14 -3 20 10 15 12 14
12 -9z m84 -74 c0 -2 -7 -7 -16 -10 -8 -3 -12 -2 -9 4 6 10 25 14 25 6z m399
-573 l29 -28 -29 -2 c-16 -1 -30 1 -30 5 -4 23 -6 52 -3 52 3 0 17 -12 33 -27z
m1441 -18 c0 -8 -7 -11 -20 -8 -11 3 -20 8 -20 12 0 4 9 7 20 8 11 1 20 -4 20
-12z m-420 -15 c0 -5 -2 -10 -4 -10 -3 0 -8 5 -11 10 -3 6 -1 10 4 10 6 0 11
-4 11 -10z m340 4 c0 -8 -19 -13 -24 -6 -3 5 1 9 9 9 8 0 15 -2 15 -3z m-287
-11 c-7 -2 -21 -2 -30 0 -10 3 -4 5 12 5 17 0 24 -2 18 -5z m137 -12 c0 -8
-80 -4 -89 5 -2 2 17 4 42 4 26 0 47 -4 47 -9z m25 -1 c3 -5 1 -10 -4 -10 -6
0 -11 5 -11 10 0 6 2 10 4 10 3 0 8 -4 11 -10z m90 -10 c-3 -5 -16 -10 -28 -9
-20 1 -20 2 3 9 14 4 26 8 28 9 2 1 0 -3 -3 -9z m55 -19 c0 -4 -11 -6 -25 -3
-14 2 -25 6 -25 8 0 2 11 4 25 4 14 0 25 -4 25 -9z m60 -10 c0 -5 -9 -7 -20
-4 -11 3 -20 7 -20 9 0 2 9 4 20 4 11 0 20 -4 20 -9z m-5120 -405 c0 -2 -7 -7
-16 -10 -8 -3 -12 -2 -9 4 6 10 25 14 25 6z m-110 -236 c0 -5 -2 -10 -4 -10
-3 0 -8 5 -11 10 -3 6 -1 10 4 10 6 0 11 -4 11 -10z"/>
<path d="M6510 13072 c0 -5 7 -9 15 -9 8 0 12 4 9 9 -3 4 -9 8 -15 8 -5 0 -9
-4 -9 -8z"/>
<path d="M9875 8730 c-6 -9 -4 -11 5 -5 10 6 12 4 7 -8 -3 -9 -2 -19 3 -22 15
-9 20 11 6 30 -10 14 -15 15 -21 5z"/>
</g>
</svg>
